<svg xmlns="http://www.w3.org/2000/svg" viewBox="0 0 100 100">
  <defs>
    <linearGradient id="bookGradient" x1="0%" y1="0%" x2="100%" y2="100%">
      <stop offset="0%" style="stop-color:#667eea"/>
      <stop offset="100%" style="stop-color:#764ba2"/>
    </linearGradient>
    <linearGradient id="pageGradient" x1="0%" y1="0%" x2="100%" y2="0%">
      <stop offset="0%" style="stop-color:#f8f9fa"/>
      <stop offset="100%" style="stop-color:#e9ecef"/>
    </linearGradient>
    <filter id="shadow" x="-20%" y="-20%" width="140%" height="140%">
      <feDropShadow dx="2" dy="3" stdDeviation="3" flood-opacity="0.25"/>
    </filter>
  </defs>
  
  <rect width="100" height="100" rx="20" fill="url(#bookGradient)"/>
  
  <g filter="url(#shadow)">
    <path d="M50 22 L50 75" stroke="#d4d4d4" stroke-width="1.5"/>
    
    <path d="M20 25 
             Q20 22 23 22 
             L48 22 
             L48 70 
             L23 70 
             Q20 70 20 67 
             Z" 
          fill="url(#pageGradient)"/>
    
    <path d="M80 25 
             Q80 22 77 22 
             L52 22 
             L52 70 
             L77 70 
             Q80 70 80 67 
             Z" 
          fill="url(#pageGradient)"/>
    
    <path d="M20 25 Q20 22 23 22 L48 22 L48 70 L23 70 Q20 70 20 67 Z" 
          fill="none" stroke="#c0c0c0" stroke-width="1"/>
    <path d="M80 25 Q80 22 77 22 L52 22 L52 70 L77 70 Q80 70 80 67 Z" 
          fill="none" stroke="#c0c0c0" stroke-width="1"/>
    
    <g stroke="#667eea" stroke-width="2" stroke-linecap="round" opacity="0.6">
      <line x1="26" y1="32" x2="42" y2="32"/>
      <line x1="26" y1="40" x2="38" y2="40"/>
      <line x1="26" y1="48" x2="40" y2="48"/>
      <line x1="26" y1="56" x2="35" y2="56"/>
    </g>
    
    <g stroke="#764ba2" stroke-width="2" stroke-linecap="round" opacity="0.6">
      <line x1="58" y1="32" x2="74" y2="32"/>
      <line x1="58" y1="40" x2="70" y2="40"/>
      <line x1="58" y1="48" x2="72" y2="48"/>
      <line x1="58" y1="56" x2="65" y2="56"/>
    </g>
  </g>
  
  <ellipse cx="50" cy="82" rx="25" ry="4" fill="#000" opacity="0.1"/>
</svg>